<?xml version="1.0" encoding="utf-8"?>
<!-- Generator: Adobe Illustrator 25.4.1, SVG Export Plug-In . SVG Version: 6.00 Build 0)  -->
<svg version="1.1" baseProfile="basic" id="Untitled-1_xA0_Image_00000093886961406226068890000015878577300111805871_"
	 xmlns="http://www.w3.org/2000/svg" xmlns:xlink="http://www.w3.org/1999/xlink" x="0px" y="0px" viewBox="0 0 96 131.8"
	 xml:space="preserve">
<style type="text/css">
	.st0{fill:#020201;}
	.st1{fill:#323233;}
	.st2{fill:#333333;}
	.st3{fill:#D0A254;}
	.st4{fill:#FEFEFE;}
	.st5{fill:#FEFEFD;}
	.st6{fill:#FEFDFD;}
	.st7{fill:#FDFDFD;}
	.st8{fill:#FDFDFC;}
	.st9{fill:#FAF8F3;}
	.st10{fill:#FDFCFA;}
	.st11{fill:#FCFBF8;}
	.st12{fill:#FDFDFB;}
	.st13{fill:#FDFCFB;}
	.st14{fill:#FDFCF9;}
	.st15{fill:#F8F6EF;}
	.st16{fill:#F9F5ED;}
	.st17{fill:#D3A65D;}
	.st18{fill:#EFE8D7;}
	.st19{fill:#F7F3E8;}
	.st20{fill:#EFE8D9;}
	.st21{fill:#D1A357;}
	.st22{fill:#D1A458;}
	.st23{fill:#D2A559;}
	.st24{fill:#D2A65A;}
</style>
<g>
	<path class="st0" d="M22.4,91.8c0-1.6,0-3.2,0-4.8c0-0.9-0.3-1.2-1.1-1.5c-3.6-1.1-6.4-3.3-7.2-7.1c-0.5-2.1-1.4-3.6-3.1-5
		C6.1,69.6,7,61.2,12.3,58c0.8-0.5,1.2-1.1,1.3-2c0.7-4.8,3.4-7.8,8-9.1c0.8-0.2,0.8-0.7,0.8-1.3c0-2.2-0.2-4.4,0.6-6.5
		c1.4-3.8,4-6,8-6.4c1.3-0.1,1.9-0.4,2.2-1.9c0.6-3.2,2.7-5.5,5.6-6.9c2.7-1.4,5.1-3.2,7-5.6c1.7-2.2,1.5-3.4-1-4.5
		c-0.7-0.3-0.4-0.7-0.1-1c0.7-0.7,1.7-1.1,2.2-2.1c0.1-0.3,0.5-0.2,0.6,0c0.4,1,1.5,1.1,2.1,1.8c0.7,0.7,0.5,1.1-0.4,1.3
		c-1.5,0.3-2.3,2-1.4,3.2c1.9,2.7,4.1,5,7.2,6.5c3.1,1.5,5.4,3.7,6.3,7.1c0,0.2,0.1,0.4,0.1,0.6c-0.1,1.3,0.6,1.5,1.7,1.6
		c2.8,0.1,5.1,1.3,6.8,3.4c1.6,1.9,2.3,4.3,2.1,6.7c-0.2,2.6,0.4,4.1,3.1,5.1c3.5,1.3,5.2,4.3,5.7,8c0.1,0.9,0.5,1.6,1.3,2.1
		c2.8,1.7,4.2,4.2,4.4,7.5c0.3,4.1-1.3,7.2-4.8,9.3c-0.7,0.4-0.8,1.1-0.9,1.8c-0.6,4.3-3,7.3-7.2,8.7c-1.3,0.4-1.6,1-1.6,2.3
		c0.1,2.9,0,5.9,0,8.9c0,1-0.4,1.4-1.4,1.4c-2.7,0-5.3,0-8,0c-0.9,0-1.2,0.3-1.4,1.2c-0.6,3.7-3,6.2-6.2,7.8
		c-2.9,1.4-5.2,3.5-7.1,6.1c-1.1,1.6-0.4,3.3,1.5,3.6c0.3,0,0.6,0,0.7,0.3c0,0.2-0.1,0.6-0.3,0.7c-0.8,0.7-1.8,1-2.3,2
		c-0.1,0.3-0.5,0.2-0.7-0.1c-0.4-0.8-1.3-1.2-1.9-1.7c-0.3-0.2-0.6-0.6-0.5-1c0.1-0.4,0.5-0.2,0.8-0.3c1.5-0.3,2.2-2.1,1.2-3.5
		c-1.9-2.7-4.2-4.8-7.2-6.3c-2.9-1.4-5.1-3.6-5.9-6.8c-0.6-2.1-0.6-2.1-2.8-2.1c-2.3,0-4.6,0-6.9,0c-0.8,0-1.1-0.2-1.1-1.1
		C22.5,95,22.4,93.4,22.4,91.8C22.4,91.8,22.4,91.8,22.4,91.8z"/>
	<path class="st1" d="M47.9,8.6c-0.1,0.5-0.3,0.9-0.8,0.9c-0.4,0-0.6-0.4-0.6-0.8c0-0.5,0.2-1.1,0.7-1.1C47.6,7.7,47.7,8.2,47.9,8.6
		z"/>
	<path class="st2" d="M47.9,121.4c-0.2,0.4-0.3,1-0.8,1c-0.4,0-0.6-0.6-0.7-1c0-0.4,0.3-0.8,0.7-0.9
		C47.6,120.5,47.8,120.9,47.9,121.4z"/>
	<path class="st3" d="M24.4,89.5c0-1.6,0-3.2,0-4.8c0-0.7-0.1-1-1-1.2c-5-0.7-7.8-3.9-8-8.9c0-0.8-0.2-1.3-1-1.6
		c-3-1.2-4.7-3.8-4.7-7.1c0-3.2,1.7-5.8,4.6-7c0.8-0.3,1-0.8,1.1-1.6c0.2-5.1,2.7-8,7.8-8.9c0.9-0.2,1.2-0.5,1.1-1.4
		c-0.1-1.5,0-3,0-4.5c0.1-5.3,3.6-8.5,8.9-8.1c1.7,0.1,1.7,0.1,1.7-1.6c-0.1-3.5,1.8-5.9,4.7-7.4c2.6-1.3,4.9-3,6.9-5.3
		c0.5-0.5,0.7-0.6,1.2,0c1.9,2.2,4.1,3.8,6.7,5.2c3.5,1.8,5.5,4.5,4.8,8.7c-0.1,0.8,0.4,0.6,0.8,0.6c1.5-0.3,3-0.2,4.5,0.2
		c3.2,0.9,5.2,3.6,5.3,7.1c0.1,1.8,0.1,3.6,0,5.4c0,0.7,0.2,1,1,1.1c4,0.6,6.8,2.7,7.7,6.8c0.2,0.8,0.3,1.6,0.2,2.4
		c0,0.8,0.3,1.1,1,1.4c3,1.2,4.6,3.8,4.6,7.2c0,3.3-1.7,5.8-4.7,7c-0.8,0.3-0.9,0.7-0.9,1.4c-0.2,4.7-2.4,7.6-6.4,8.7
		c-0.1,0-0.2,0.1-0.3,0.1c-2.2,0.5-2.2,0.5-2.2,2.7c0,2.8,0,5.5,0,8.3c0,0.8-0.2,1-1,1c-2.8,0-5.5,0-8.3,0c-0.9,0-1.4,0.2-1.3,1.2
		c0.2,3.7-1.8,6.2-4.9,7.8c-2.5,1.3-4.8,2.9-6.6,5.1c-0.6,0.7-0.9,0.6-1.5,0c-1.8-2.1-3.9-3.7-6.4-4.9c-3.3-1.6-5.3-4.1-5.1-8
		c0.1-0.9-0.3-1.1-1.1-1.1c-2.8,0-5.6,0-8.4,0c-0.8,0-1.1-0.2-1.1-1.1C24.5,92.7,24.4,91.1,24.4,89.5C24.4,89.5,24.4,89.5,24.4,89.5
		z"/>
	<path class="st4" d="M46.2,66.6c-3.1,2.4-6.1,5-9.4,7.2c-2.7,1.9-5.4,3.9-8.5,5c-0.9,0.4-1.9,0.6-2.9,0.7c-1.3,0-2.2-0.6-2.5-1.9
		c-0.4-2.4-0.3-4.6,1.1-6.8c1.4-2.2,3-4.4,3.7-7.1c0.3-1.1,0.5-2.2,0.3-3.3c-0.2-1.7,0.2-3.2,1-4.7c0.3-0.6,0.7-0.9,1.4-0.8
		c1.3,0.1,1.9-0.4,2.1-1.7c0.1-0.5,0.1-0.9,0.5-1.1c0.4-0.3,0.4-0.7,0.4-1.2c0-0.5,0-1,0-1.7c1.2,1.6,1.2,3.9,0.2,5.1
		c-0.2,0.3-0.4,0.6-0.5,0.9c-0.4,1.5-1,2.1-2.5,2.3c-0.3,0-0.7,0.1-0.9,0.2c-0.7,0.4-1.1,1.1-1,1.9c0.2,0.9,0.9,0.8,1.6,0.9
		c0.3,0,0.6,0,1,0c1.3-0.2,1.5,0,1.3,1.4c-0.3,1.9-0.6,2.2-2.4,2.6c-0.8,0.2-1.5,0.5-1.8,1.2c-1.1,2.7-2.9,4.9-4.3,7.5
		c-0.1,0.1-0.1,0.2-0.2,0.3c-0.2,0.6-0.5,1.2-0.1,1.7c0.4,0.5,1,0.4,1.6,0.2c2.1-0.5,4-1.5,5.9-2.6c6.8-4.1,13.1-9.1,19.1-14.3
		c4.5-3.9,8.7-8.2,13.1-12.2c0.6-0.6,1.4-1.5,2.1-0.8c0.7,0.6-0.2,1.5-0.7,2.2c-3.9,4.8-8.4,9.2-12.9,13.5c-0.7,0.7-1.4,1.4-2.2,2
		c2,1,2.5,2,1.9,3.7c-0.2,0.6-0.6,1-1.3,0.9c-0.7-0.1-1,0.1-0.9,0.8c0.1,0.9-0.2,1.7-0.7,2.3c-0.4,0.2-0.8,0.1-1.2,0.1
		c-1.1,0.1-1.3-0.2-1.4-1.3c0-1,0-2,0-2.9c0.1-0.7,0.6-0.6,1.1-0.5c0.9,0.1,0.9-0.4,0.8-1.2c-0.7,0.4-1.1,1-1.7,1.2
		C46.6,66.5,46.4,66.5,46.2,66.6z"/>
	<path class="st4" d="M43.1,75.4c0.1-0.8,0.4-1.5,0.8-2.1c0.9-1.1,2.3-1,2.9,0.3c1.1,2.4,0.5,6.5-1.3,8.4c-0.9,1-2,1.4-3.3,1
		c-1.2-0.3-1.5-0.1-1.6,1.2c-0.2,1.6-0.7,3.2-1.8,4.4c-1.2,1.4-2,3.1-2.4,4.9c-0.3,1.1,0,1.4,1.2,1.5c1,0,1.9-0.4,2.7-0.8
		c6.3-3.2,11.9-7.4,17.3-11.9c6.2-5.2,11.8-11.1,17.7-16.7c0.5-0.5,1.1-1,1.6-1.4c0.3-0.2,0.6-0.4,1-0.2c0.3,0.3,0.3,0.7,0.1,1
		c-0.4,0.7-0.8,1.4-1.3,2C72,72.6,67.1,77.6,62,82.4c-5.2,4.9-10.8,9.3-16.6,13.5c-2.1,1.5-4.4,2.8-7,3.1c-1.5,0.2-2.4-0.3-2.7-1.8
		c-0.8-3.4-0.1-6.6,2.1-9.3c1-1.3,1.8-2.6,1.9-4.3c0-0.4,0.2-0.7,0.3-1c0.4-1.4,1.2-2.5,2.8-2.3c0.2-0.1,0.3-0.4,0.5-0.4
		c1.3-0.6,2.2-1.6,2.6-3c0.1-0.4,0.2-0.8-0.2-1.1c-0.4-0.3-0.7-0.1-1.1,0.1c-0.6,0.2-0.8,1.1-1.6,1.1C42.9,76.4,42.9,75.9,43.1,75.4
		z"/>
	<path class="st5" d="M48.6,54.1c0.4,2.3-0.8,3.7-2.5,4.9c-0.7,0.5-1.2,1.1-1.3,1.9c0,0.2-0.1,0.5-0.2,0.7c-1.1,3.1-4.2,3.9-6.5,1.5
		c-1-1-1.7-2.2-2.1-3.6c-0.7-1.8-1.3-3.7-1.6-5.7c0.7,0.1,0.7,0.6,0.8,1c0.6,1.5,1.1,3,2.2,4.2c0.7,0.8,1.5,1.5,2.6,1.5
		c0.6,0,1-0.2,0.7-0.9C40,58.5,39.9,57,40,55.6c0-0.5-0.2-0.9-0.4-1.4c-0.2-0.6-0.5-1.2-0.2-2c1.7,1.8,3.5,1.2,5.4,0.6
		C47.2,52.2,47.3,52.2,48.6,54.1L48.6,54.1z"/>
	<path class="st5" d="M47.6,72.2c0.6,1.3,1.5,2.3,2.5,3.3c0.5,0.5,1.1,0.9,1.8,1.1c1.1,0.4,2.3,0.7,3.3-0.2c1-0.9,1.1-2.2,0.9-3.5
		c-0.1-0.6-0.4-1.2-1.1-1.2c-0.7,0-0.9,0.6-0.9,1.2c-0.1,0.5-0.3,1-0.9,1.1c-0.7,0.1-1-0.2-1.4-0.7c-0.5-0.8-1-1.6-1.2-2.6
		c-0.2-0.9-0.3-1.9,0.7-2.4c0.9-0.5,2-0.4,2.7,0.3c2,1.9,3.6,4.1,3.8,7.1c0,0.5,0,1,0,1.6c-0.1,3-2.4,4.3-5.1,3
		c-1.4-0.7-2.3-1.9-3.2-3.1c-1.2-1.7-2-3.5-3-5.3c-0.1-0.3-0.2-0.5-0.1-0.8C47.4,70.9,47.4,71.6,47.6,72.2z"/>
	<path class="st6" d="M62.3,72.6c-0.2,1.8,0,3.6-1.6,4.8c-0.7,0.5-1.4,1.1-2.7,0.9c3.8-3,3.9-6.7,2.6-10.8c0.3,0.1,0.4,0.2,0.4,0.2
		c0.5,1.4,1.5,2.2,3,2c1.3-0.1,2.7-1.4,3-2.9c0.2-1.3,0.3-2.5,1.8-2.9c0.1,0,0.2-0.1,0.2-0.2c0.1-1.3,0.8-2.5,0.9-3.7
		c0.1-1.5,0.6-3-0.2-4.5c1,1.7,1.9,3.2,1.3,5.4c-0.4,1.6-1.4,2.9-1.3,4.6c0,0.4-0.3,0.8-0.7,1.1c-1.1,0.7-1.4,1.7-1.4,2.9
		c0,0.8-0.1,1.7-0.3,2.5c-0.7,1.9-2.3,2.5-4,1.3C62.9,73,62.6,72.9,62.3,72.6z"/>
	<path class="st7" d="M48.6,54.1c0.2-1.6-0.9-2.7-1.5-4c-0.1-0.3-0.3-0.6-0.4-0.9c-0.3-0.6-0.9-1.3-0.2-1.9c0.8-0.7,1.8-1,2.8-0.5
		c2.5,1.1,4,5.1,2.9,7.6c-0.3,0.7-0.7,1.2-1.5,1.2c-0.8,0.1-1.4-0.3-1.7-1C48.9,54.5,48.7,54.3,48.6,54.1
		C48.6,54.1,48.6,54.1,48.6,54.1z"/>
	<path class="st8" d="M54.3,53.3c0.2-1.6,0.7-3.1,0.8-4.6c0.1-2.3-0.5-3-2.7-2.6c-1.2,0.2-1.7-0.1-1.9-1.2c-0.1-0.7-0.4-1.3-0.7-1.9
		c-0.2-0.5-0.1-0.8,0.5-1c1.6-0.5,3.3,0.1,4.2,1.5c1,1.5,1.6,3.1,1.8,4.9C56.5,50.3,55.2,51.8,54.3,53.3z"/>
	<path class="st6" d="M68.4,79.6c0-0.1,0-0.4,0-0.7c-0.1-0.9,0.3-1.3,1.2-1c1,0.3,1.2-0.1,1.1-1c0-0.2,0-0.3,0-0.5
		c0.2-0.6-0.5-1.6,0.8-1.7c1.5-0.1,2.4,0.5,2.5,1.8c0.1,0.7,0.1,1.4-0.3,2.1c-0.2,0.4-0.6,0.7-1,0.6c-1-0.3-1,0.3-1,1
		c0,1.8-0.6,2.2-2.3,2c-0.8-0.1-1.1-0.5-1-1.3C68.3,80.5,68.3,80.2,68.4,79.6z"/>
	<path class="st9" d="M63.5,51.6c0-1,1.1-2.1,2.1-2c0.4,0,0.3,0.3,0.3,0.5c-0.3,1.4-0.5,2.9-1.3,4.2c-0.4,0.7-0.7,1.3-0.9,2.1
		c-0.1,0.4-0.3,0.8-0.7,0.8c-1.2,0.2-1.6,1.1-1,2.3c0.9,1.6,1.5,3.3,0.9,5.2c-0.3,1-0.8,1.8-2,2c-1.2,0.2-1.7-0.6-2.3-1.4
		c-0.5-0.8-0.9-1.6-1-2.8c0.2,0.5,0.3,0.7,0.5,1c0.8,1.6,1.4,2,2.4,1.7c1.5-0.5,2.3-1.9,2-3.4c-0.2-1-0.8-1.9-1.4-2.7
		c-0.4-0.5-0.6-0.9,0-1.4c0.7-0.6,0.6-1.4,0.4-2.3c1.1,0.5,1.7,0.1,2.2-0.9c0.4-0.8,1-1.6,1.3-2.5c0.1-0.3,0.4-0.7,0.1-1
		c-0.3-0.2-0.7,0-1,0.2C63.9,51.2,63.7,51.4,63.5,51.6z"/>
	<path class="st10" d="M58.6,35.8c0.1,0,0.3,0.1,0.3,0.1c1.5,2.3,2.9,4.7,3.4,7.5c0.4,2.1-0.8,3.7-2.1,5.3c-0.1,0.2-0.3,0.3-0.5,0.2
		c-0.3-0.1-0.2-0.4-0.2-0.6c0.2-1.1,0.4-2.3,0.6-3.4c0.6-2.9-0.1-5.6-1.4-8.2C58.6,36.4,58.3,36.1,58.6,35.8z"/>
	<path class="st11" d="M57.7,45.9c-2.1-4.2-6.5-7.1-7-12.3C53.7,37.4,56.6,41.1,57.7,45.9z"/>
	<path class="st12" d="M39.9,77.6c-1.3,0.4-1.5-0.5-1.5-1.5c0-0.3,0-0.6,0-1c0-1.9,0.7-2.3,2.4-1.4c0.9,0.5,1.2,1.6,0.9,2.9
		C41.4,77.6,40.8,77.8,39.9,77.6z"/>
	<path class="st13" d="M56.2,35.2c-0.8,0.2-1.3-0.1-1.3-1c0-0.4-0.2-0.9-0.2-1.3c0-0.6-0.6-1.4,0.4-1.7c1.1-0.4,2.3,0.1,2.7,1.1
		c0.2,0.7,0.2,1.3,0.1,2C57.7,35.2,57,35.3,56.2,35.2z"/>
	<path class="st12" d="M25.6,44c0.2-0.4-0.4-1.2,0.5-1.3c0.8-0.1,1.8-0.3,2.4,0.6c0.4,0.7,0.6,1.4,0.4,2.2c-0.2,1-1.8,1.7-2.7,1.2
		c-0.4-0.3-0.3-0.8-0.4-1.2C25.6,45,25.6,44.5,25.6,44z"/>
	<path class="st14" d="M30.7,47.9c-1-0.1-1.5,0.2-1.5,1.4c0,1.6-0.8,2-2.4,1.7c-0.1,0-0.2,0-0.2-0.1c-0.7-1-0.3-2-0.3-3.1
		c0-0.7,0.7-0.6,1.2-0.5c0.3,0,0.6,0.1,0.8,0.2c0.7,0.3,0.9,0,0.9-0.6C29.9,46.9,30.5,47,30.7,47.9z"/>
	<path class="st15" d="M63.8,65.7c0.3-2,0.1-4,0.3-6.1c0.1-1.3,0.5-2.4,1.6-3.1c0.5-0.3,0.6-0.7,0.6-1.2c0-0.6-0.1-1.3,0.1-1.9
		c0.1-0.3,0-0.8,0.5-0.7c0.4,0.1,0.7,0.4,0.8,0.8c0.1,0.3,0,0.7-0.3,0.9c-0.8,0.5-0.8,1.3-0.7,2c0.1,0.9-0.3,1.4-1,1.9
		c-0.8,0.5-1.1,1.3-1.2,2.3c-0.2,1.5,0.1,3-0.4,4.4C64.1,65.3,63.9,65.5,63.8,65.7z"/>
	<path class="st8" d="M30.7,47.9c-0.3-0.6-1-0.6-1.5-1c0-0.4,0-0.8,0-1.2c0-0.7-0.1-1.5,1-1.5c1.2,0,2,0.4,2.1,1.5
		c0.1,0.5,0,1-0.2,1.5C31.9,48.1,31.4,48.4,30.7,47.9z"/>
	<path class="st16" d="M68,60.4c0,0.2-1.5,2-1.7,2c-0.5,0.1-0.6-0.2-0.7-0.6c-0.1-0.4-0.3-0.8,0.3-1c0.4-0.1,0.8-0.1,0.7-0.7
		c-0.1-0.5,0.2-0.7,0.7-0.7C67.8,59.5,68,59.9,68,60.4z"/>
	<path class="st17" d="M47.6,72.2c-0.5-0.3-0.5-1.1-1.2-1.2c-0.2-1.4,0.3-2.9-0.2-4.3c0.1-0.2,0.3-0.3,0.5-0.2l0,0
		c0,0.9,0,1.8-0.1,2.6c0,1.7,0,1.7,1.7,1.9c0.2,0,0.5,0,0.7,0C48.5,71.3,47.6,71.1,47.6,72.2z"/>
	<path class="st18" d="M66.2,48.8c0.9,1.2,1.8,2.5,2.2,4C67.5,51.5,66.4,50.4,66.2,48.8z"/>
	<path class="st19" d="M60.8,61.2c0,0.5-0.2,0.8-0.6,0.8c-0.8,0-0.6-0.7-0.7-1.1c-0.1-0.4,0.2-0.5,0.5-0.5
		C60.6,60.3,60.8,60.7,60.8,61.2z"/>
	<path class="st20" d="M43.3,80c-0.2,0.1-0.4,0.1-0.5,0.2c0.2-1.6-0.3-3.2,0.3-4.8c0.1,0.5-0.2,1,0.2,1.5C43.9,77.9,43.9,79,43.3,80
		z"/>
	<path class="st17" d="M46.7,66.4c0.5-0.8,1.2-1.3,2-1.9c0.1,0.1,0.2,0.2,0.2,0.2C49,66.8,49,66.8,46.7,66.4
		C46.7,66.4,46.7,66.4,46.7,66.4z"/>
	<path class="st21" d="M43.3,80c0-1,0-2.1,0-3.1c0.1-0.4,0.3-0.7,0.6-1c0.6-0.6,1.4-1,2.1-0.5c0.7,0.5,0.3,1.3,0.1,1.8
		C45.6,78.5,44.9,79.7,43.3,80z"/>
	<path class="st22" d="M40.6,57.3c-0.1-1,0.5-1.5,1.5-1.5c1.1-0.1,2,0.7,1.9,1.6c0,0.9-1,1.9-2,1.9C41.2,59.4,40.6,58.5,40.6,57.3z"
		/>
	<path class="st23" d="M46.5,54.6c0.6,0,1,0,1.2,0.3c0.2,0.4,0,0.8-0.3,1c-0.6,0.5-1.2,0.9-1.8,1.3c-0.6,0.4-0.8-0.2-0.9-0.6
		c-0.1-0.5-1-1-0.1-1.5C45.2,54.9,46,54.7,46.5,54.6z"/>
	<path class="st24" d="M51.4,52c0,0.9-0.7,1.7-1.5,1.7c-0.9-0.1-1.3-0.7-1.2-1.4c0-0.8,0.4-1.4,1.3-1.4C50.8,50.8,51.4,51.3,51.4,52
		z"/>
</g>
</svg>
